<svg width="194" height="198" viewBox="0 0 194 198" fill="none" xmlns="http://www.w3.org/2000/svg">
<path d="M96.497 98.7974L1.47768 69.4136C1.21387 69.332 1.04967 69.4841 1.11094 69.7534L23.1796 166.733C23.2409 167.002 23.5044 167.287 23.7682 167.368L118.788 196.752C119.051 196.834 119.216 196.682 119.154 196.412L97.0857 99.4327C97.0244 99.1634 96.7609 98.879 96.497 98.7974Z" fill="white" stroke="#202020"/>
<path d="M170.297 31.0015L97.3441 98.6034C97.1416 98.7911 97.0271 99.1615 97.0883 99.4308L119.151 196.412C119.212 196.681 119.426 196.747 119.628 196.56L192.581 128.958C192.784 128.77 192.898 128.4 192.837 128.13L170.774 31.1492C170.713 30.88 170.499 30.8138 170.297 31.0015Z" fill="white" stroke="#202020"/>
<path d="M74.6941 0.999997L1.00371 69.2769L96.9803 98.9501L170.671 30.6733L74.6941 0.999997Z" fill="url(#paint0_linear_6_36)" stroke="#202020"/>
<path d="M71.1626 51.8114L89.008 57.3287C89.3631 57.4385 89.8814 57.244 89.9664 56.969L94.7454 41.5153C94.8394 41.2104 94.3364 41.0551 93.8904 41.2511L71.2661 51.1875C70.8635 51.3644 70.8075 51.7016 71.1626 51.8114Z" fill="#DADEFF" stroke="#202020"/>
<defs>
<linearGradient id="paint0_linear_6_36" x1="71.9228" y1="45.6731" x2="110.059" y2="86.8326" gradientUnits="userSpaceOnUse">
<stop stop-color="#202020" stop-opacity="0.2"/>
<stop offset="1" stop-color="#202020" stop-opacity="0"/>
</linearGradient>
</defs>
</svg>
