<svg width="198" height="190" viewBox="0 0 198 190" fill="none" xmlns="http://www.w3.org/2000/svg">
<path d="M98.6936 94.9433L1.49178 77.0988C1.22018 77.049 1.0751 77.2194 1.16773 77.4796L34.3208 170.579C34.4134 170.839 34.7087 171.09 34.9803 171.14L132.182 188.985C132.454 189.035 132.599 188.864 132.506 188.604L99.3531 95.5046C99.2605 95.2444 98.9652 94.9931 98.6936 94.9433Z" fill="white" stroke="#202020"/>
<path d="M163.563 19.3907L99.5129 94.6518C99.3339 94.8621 99.2639 95.2435 99.3565 95.5036L132.504 188.605C132.596 188.865 132.816 188.906 132.995 188.695L197.045 113.434C197.224 113.224 197.294 112.843 197.202 112.582L164.055 19.481C163.962 19.2208 163.742 19.1804 163.563 19.3907Z" fill="white" stroke="#202020"/>
<path d="M65.3857 1.38076L1.33104 76.6378C1.15205 76.8481 1.22714 77.059 1.49875 77.1088L98.7017 94.9471C98.9733 94.997 99.3386 94.8669 99.5176 94.6566L163.572 19.3996C163.751 19.1893 163.676 18.9784 163.405 18.9286L66.2016 1.09025C65.93 1.04041 65.5647 1.17047 65.3857 1.38076Z" fill="white" stroke="#202020"/>
<path d="M88.9876 40.3394C83.5096 39.3341 76.1423 41.9574 72.5324 46.1986C68.9225 50.4399 70.4369 54.693 75.915 55.6983C81.393 56.7036 88.7602 54.0804 92.3701 49.8392C95.98 45.5979 94.4656 41.3448 88.9876 40.3394Z" fill="#EFF9B0" stroke="#202020"/>
</svg>
